<svg xmlns="http://www.w3.org/2000/svg" viewBox="0 0 512 512">
  <defs>
    <linearGradient id="bg" x1="0" y1="0" x2="1" y2="1">
      <stop offset="0" stop-color="#0d0f14"/>
      <stop offset="1" stop-color="#141720"/>
    </linearGradient>
    <linearGradient id="accent" x1="0" y1="0" x2="1" y2="0">
      <stop offset="0" stop-color="#7c3aed"/>
      <stop offset="1" stop-color="#00e5ff"/>
    </linearGradient>
    <filter id="glow" x="-30%" y="-30%" width="160%" height="160%">
      <feGaussianBlur stdDeviation="6" result="blur"/>
      <feColorMatrix in="blur" type="matrix"
        values="0 0 0 0 0
                0 0 0 0 0.9
                0 0 0 0 1
                0 0 0 0.25 0" result="glow"/>
      <feMerge>
        <feMergeNode in="glow"/>
        <feMergeNode in="SourceGraphic"/>
      </feMerge>
    </filter>
  </defs>

  <rect width="512" height="512" rx="112" fill="url(#bg)"/>

  <!-- Antenna -->
  <rect x="244" y="92" width="24" height="64" rx="12" fill="#1c2030"/>
  <circle cx="256" cy="84" r="18" fill="url(#accent)" filter="url(#glow)"/>

  <!-- Head -->
  <rect x="112" y="140" width="288" height="252" rx="84" fill="#1c2030" stroke="#2a2f42" stroke-width="8"/>

  <!-- Face plate -->
  <rect x="148" y="184" width="216" height="164" rx="56" fill="#141720" stroke="#2a2f42" stroke-width="6"/>

  <!-- Eyes -->
  <circle cx="216" cy="264" r="22" fill="url(#accent)" filter="url(#glow)"/>
  <circle cx="296" cy="264" r="22" fill="url(#accent)" filter="url(#glow)"/>

  <!-- Mouth -->
  <rect x="206" y="310" width="100" height="18" rx="9" fill="#2a2f42"/>
  <rect x="216" y="312" width="80" height="14" rx="7" fill="rgba(0,229,255,0.25)"/>

  <!-- Cheek lights -->
  <circle cx="176" cy="306" r="10" fill="rgba(255,107,53,0.85)"/>
  <circle cx="336" cy="306" r="10" fill="rgba(255,107,53,0.85)"/>

  <!-- Base shadow -->
  <rect x="148" y="402" width="216" height="26" rx="13" fill="#0d0f14" opacity="0.55"/>
</svg>
